<svg width="82" height="41" viewBox="0 0 82 41" fill="none" xmlns="http://www.w3.org/2000/svg">
<path d="M15.5 39.0001C8.04416 39.0001 2 32.7321 2 25.0001C2 17.2681 10 7.00013 21 13.0001" stroke="#E4E4E4" stroke-width="3"/>
<path d="M49 15.5C49 7.76801 42.732 2 35 2C27.268 2 20.5 5.76801 20.5 13.5" stroke="#E4E4E4" stroke-width="3"/>
<path d="M67 20.9998C67 13.2679 53.5 9.50015 49 14.9999" stroke="#E4E4E4" stroke-width="3"/>
<path d="M68.5 39C74.299 39 80 34.5229 80 29C80 23.4772 75.5 16.9999 66.5 21" stroke="#E4E4E4" stroke-width="3"/>
<path d="M15 39H42H69.5" stroke="#E4E4E4" stroke-width="3"/>
<path d="M20.9645 15.3145L20.9567 15.295L20.9473 15.2761C20.4661 14.3138 19.9791 13.7773 19.5276 13.3112C19.6214 12.5728 20.2518 12.002 21.0156 12.002C21.228 12.002 21.3155 12.0453 21.3484 12.0684C21.3758 12.0876 21.4118 12.1246 21.4437 12.2311C21.4784 12.347 21.497 12.5088 21.5028 12.7362C21.5065 12.8813 21.5051 13.0274 21.5034 13.189C21.5024 13.2866 21.5014 13.3899 21.5014 13.502C21.5014 14.0572 21.4982 15.3635 21.341 16.1396C21.2349 15.9471 21.1096 15.6783 20.9645 15.3145Z" fill="#F7F3F3" stroke="#E4E4E4"/>
<path d="M50.7337 13.8021C51.1271 13.9544 51.3385 14.1217 51.4345 14.2801C50.1265 15.1889 49.2222 16.0719 48.7275 16.5655C48.2188 16.75 47.8111 16.9984 47.5194 17.1926C47.5781 16.6493 47.7675 15.7924 48.0552 15.0079C48.2291 14.5338 48.4263 14.1218 48.6286 13.8381C48.8512 13.5259 48.9836 13.5 49 13.5C49.5071 13.5 50.1929 13.5927 50.7337 13.8021Z" fill="#E4E4E4" stroke="#E4E4E4"/>
<path d="M67.7339 20.3021C68.1653 20.4691 68.378 20.6543 68.4593 20.8259C67.8074 21.4244 67.0714 21.8461 66.4482 22.1861C66.3971 22.2139 66.3461 22.2416 66.2955 22.269C66.0206 22.4181 65.7571 22.5611 65.5587 22.6933C65.5068 22.7279 65.4538 22.7653 65.4022 22.8058C65.4054 22.7909 65.4087 22.7754 65.4121 22.7591C65.4486 22.5855 65.4875 22.37 65.4975 22.1213C65.7306 21.6395 65.8555 21.2648 65.9731 20.9121L65.9744 20.9082C66.0716 20.6168 66.1638 20.3409 66.3114 20.0105C66.7666 20.0401 67.2975 20.1331 67.7339 20.3021Z" fill="#F7F3F3" stroke="#E4E4E4"/>
<ellipse cx="13.5" cy="25.5" rx="11.5" ry="13.5" fill="#F7F3F3"/>
<path d="M49 17C49 24.732 42.2843 31 34 31C25.7157 31 19 24.732 19 17C19 9.26801 25.7157 3 34 3C42.2843 3 49 9.26801 49 17Z" fill="#F7F3F3"/>
<ellipse cx="69" cy="29.5" rx="10" ry="9.5" fill="#F7F3F3"/>
<ellipse cx="57" cy="22.5" rx="10" ry="9.5" fill="#F7F3F3"/>
<rect x="15" y="24" width="53" height="15" fill="#F7F3F3"/>
</svg>
